<svg viewBox="0 0 30 30" xml:space="preserve" xmlns="http://www.w3.org/2000/svg"><path d="M23 12.7c-.4.1-.6.6-.4 1 .5 1.2.7 2.5.7 3.8 0 6-4.9 10.8-10.8 10.8S1.7 23.5 1.7 17.5 6.5 6.7 12.5 6.7c1.1 0 2.3.2 3.4.5.4.1.8-.1.9-.5.1-.4-.1-.8-.5-.9-1.2-.4-2.5-.6-3.8-.6C5.7 5.2.2 10.7.2 17.5s5.5 12.3 12.3 12.3 12.3-5.5 12.3-12.3c0-1.5-.3-3-.8-4.4-.1-.3-.6-.5-1-.4zM12.5 15c.4 0 .8-.3.8-.8s-.3-.8-.8-.8c-2.2 0-4 1.8-4 4s1.8 4 4 4 4-1.8 4-4c0-.4-.3-.8-.8-.8s-.7.5-.7.9c0 1.4-1.1 2.5-2.5 2.5S10 18.9 10 17.5s1.1-2.5 2.5-2.5zm3.7-3.9c.2-.4 0-.8-.4-1-1-.5-2.2-.7-3.3-.7-4.5 0-8.2 3.6-8.2 8.1s3.7 8.2 8.2 8.2 8.2-3.7 8.2-8.2c0-1.2-.2-2.3-.7-3.3-.2-.4-.6-.6-1-.4-.4.2-.5.6-.4 1 .4.9.6 1.8.6 2.7a6.7 6.7 0 1 1-6.7-6.7c1 0 1.9.2 2.7.6.4.2.8 0 1-.3zm13.6-5c-.1-.3-.3-.5-.6-.5l-4.1-.7-.7-4.1c0-.3-.2-.5-.5-.6-.3-.1-.6 0-.8.2l-4.9 4.9c-.2.2-.3.4-.2.7l.8 4.2-6.3 6.3h-.1c-.6 0-1.1.5-1.1 1.1s.5 1.1 1.1 1.1c.6 0 1.1-.5 1.1-1.1l6.4-6.4 4.1.8h.1c.2 0 .4-.1.5-.2l4.9-4.9c.3-.2.4-.5.3-.8zM19.6 6l3.6-3.6.5 2.8-3.5 3.5-.6-2.7zm4.4 4.4-2.7-.5 3.5-3.5 2.7.5-3.5 3.5z" fill="#652524" class="fill-262324"></path></svg>